<svg width="48" height="48" viewBox="0 0 48 48" fill="none" xmlns="http://www.w3.org/2000/svg">
<g clip-path="url(#clip0_193_7)">
<path d="M25.4264 47.3997L42.444 30.3998C43.2448 29.5998 43.2448 28.3998 42.444 27.5998C41.6431 26.7998 40.4419 26.7998 39.6411 27.5998L26.027 41.1997L26.027 8.99998C26.027 7.79999 25.2262 7 24.0249 7C22.8237 7 22.0229 7.79999 22.0229 8.99998L22.0229 41.1997L3.40362 22.5999C2.6028 21.7999 1.40155 21.7999 0.600724 22.5999C0.20031 22.9999 0.000104654 23.5999 0.000104637 23.9999C0.000104619 24.3999 0.20031 24.9998 0.600724 25.3998L22.6235 47.3997C23.4243 48.1997 24.6255 48.1997 25.4264 47.3997Z" fill="white"/>
<path d="M44.0459 24C44.0459 24.6 44.2461 25 44.6465 25.4C45.0469 25.8 45.4474 26 46.048 26C46.6486 26 47.049 25.8 47.4494 25.4C47.6496 25.2 47.8498 25 47.8498 24.8C48.0501 24.4 48.0501 23.8 47.8498 23.2C47.6496 23 47.6496 22.8 47.4494 22.6C47.049 22.2 46.6486 22 46.048 22C45.4474 22 45.0469 22.2 44.6465 22.6C44.2461 23 44.0459 23.4 44.0459 24Z" fill="white"/>
<path d="M24.8264 3.79997C25.0266 3.79997 25.0266 3.59997 25.2268 3.59997C25.427 3.59997 25.427 3.39997 25.427 3.39997C25.427 3.39997 25.6272 3.19997 25.6272 2.99997C25.6272 2.79998 25.8274 2.79998 25.8274 2.59998C26.2278 1.99998 26.0276 1.19999 25.427 0.599995L25.2268 0.399996C25.0266 0.399996 25.0266 0.199998 24.8264 0.199998C24.6262 0.199998 24.6262 0.199998 24.426 -7.02721e-08C24.2258 -7.90118e-08 24.2258 -7.90118e-08 24.0256 -8.77515e-08C23.4249 -1.13971e-07 23.0245 0.199999 22.6241 0.599995C22.2237 0.999992 22.0235 1.39999 22.0235 1.99998C22.0235 2.19998 22.0235 2.59998 22.2237 2.79998C22.4239 2.99997 22.4239 3.19997 22.6241 3.39997C23.0245 3.79997 23.4249 3.99997 24.0256 3.99997C24.2258 3.99997 24.2258 3.99997 24.426 3.99997C24.6262 3.99997 24.6262 3.79997 24.8264 3.79997Z" fill="white"/>
</g>
<defs>
<clipPath id="clip0_193_7">
<rect width="48" height="48" fill="white"/>
</clipPath>
</defs>
</svg>
