<svg width="24" height="24" viewBox="0 0 24 24" fill="none" xmlns="http://www.w3.org/2000/svg">
<path d="M19.3846 3.76923H14.7692C14.7692 2.24209 13.5271 1 12 1H7.38462C6.87471 1 6.46154 1.41317 6.46154 1.92308C6.46154 2.43298 6.87471 2.84615 7.38462 2.84615H12C12.5092 2.84615 12.9231 3.26006 12.9231 3.76923H7.04012H4.61538C2.07065 3.76923 0 5.83988 0 8.38462V15.7692C0 18.314 2.07065 20.3846 4.61538 20.3846H6.64615V22.2308C6.64615 22.7407 7.05932 23.1538 7.56923 23.1538C8.07914 23.1538 8.49231 22.7407 8.49231 22.2308V20.3846H15.5077V22.2308C15.5077 22.7407 15.9209 23.1538 16.4308 23.1538C16.9407 23.1538 17.3538 22.7407 17.3538 22.2308V20.3846H19.3846C21.9294 20.3846 24 18.314 24 15.7692V8.38462C24 5.83988 21.9294 3.76923 19.3846 3.76923ZM22.1538 15.7692C22.1538 17.2964 20.9118 18.5385 19.3846 18.5385H4.61538C3.08825 18.5385 1.84615 17.2964 1.84615 15.7692V8.38462C1.84615 6.85748 3.08825 5.61538 4.61538 5.61538H7.04012H14.7692H19.3846C20.9118 5.61538 22.1538 6.85748 22.1538 8.38462V15.7692Z" fill="#6FFFD4"/>
<path d="M3.69675 2.01391C3.69971 2.04382 3.70451 2.07409 3.71041 2.10363C3.71632 2.1328 3.72371 2.16234 3.73257 2.19114C3.74143 2.21994 3.7514 2.24837 3.76284 2.27606C3.77429 2.30412 3.78758 2.33145 3.80161 2.35803C3.81564 2.38462 3.83115 2.41046 3.84777 2.43557C3.86438 2.46068 3.88248 2.48505 3.90168 2.50831C3.91128 2.52012 3.92124 2.53157 3.93121 2.54302C3.94118 2.55409 3.95189 2.56517 3.9626 2.57588C3.97331 2.58658 3.98438 2.59692 3.99546 2.60726C4.00691 2.61723 4.01835 2.6272 4.03017 2.6368C4.05343 2.656 4.0778 2.67372 4.10291 2.69071C4.12801 2.70732 4.15386 2.72283 4.18044 2.73686C4.20703 2.75089 4.23435 2.76418 4.26241 2.77563C4.29011 2.78708 4.31854 2.79742 4.34734 2.80591C4.37614 2.81477 4.40568 2.82215 4.43484 2.82806C4.46438 2.83397 4.49466 2.83877 4.52457 2.84172C4.53971 2.8432 4.55484 2.84431 4.56961 2.84505C4.58475 2.84578 4.60026 2.84615 4.6154 2.84615C4.63054 2.84615 4.64568 2.84578 4.66081 2.84505C4.67595 2.84431 4.69109 2.8432 4.70623 2.84172C4.73577 2.83877 4.76605 2.83397 4.79558 2.82806C4.82512 2.82215 4.85466 2.81477 4.88346 2.80591C4.91189 2.79742 4.94069 2.78708 4.96838 2.77563C4.99608 2.76418 5.0234 2.75089 5.04998 2.73686C5.07657 2.72283 5.10278 2.70732 5.12789 2.69071C5.153 2.67372 5.17737 2.656 5.20063 2.6368C5.21245 2.6272 5.22389 2.61723 5.23497 2.60726C5.24641 2.59692 5.25749 2.58658 5.26783 2.57588C5.27854 2.56517 5.28925 2.55409 5.29921 2.54302C5.30955 2.53157 5.31952 2.52012 5.32912 2.50831C5.34795 2.48505 5.36604 2.46068 5.38266 2.43557C5.39928 2.41046 5.41478 2.38462 5.42918 2.35803C5.44321 2.33145 5.45614 2.30412 5.46758 2.27606C5.47903 2.24837 5.48937 2.21994 5.49823 2.19114C5.50709 2.16234 5.51448 2.1328 5.52038 2.10363C5.52629 2.07409 5.53072 2.04382 5.53405 2.01391C5.53552 1.99877 5.53663 1.98363 5.53737 1.96849C5.53811 1.95372 5.53848 1.93822 5.53848 1.92308C5.53848 1.90794 5.53811 1.8928 5.53737 1.87766C5.53663 1.86252 5.53552 1.84738 5.53405 1.83225C5.53072 1.80234 5.52629 1.77243 5.52038 1.74289C5.51448 1.71335 5.50709 1.68382 5.49823 1.65502C5.48937 1.62658 5.47903 1.59778 5.46758 1.57009C5.45614 1.5424 5.44321 1.51508 5.42918 1.48849C5.41478 1.46191 5.39928 1.43569 5.38266 1.41058C5.36604 1.38585 5.34795 1.36111 5.32912 1.33785C5.31952 1.32603 5.30955 1.31458 5.29921 1.30351C5.28925 1.29206 5.27854 1.28098 5.26783 1.27028C5.25749 1.25994 5.24641 1.24923 5.23497 1.23889C5.22389 1.22892 5.21245 1.21895 5.20063 1.20935C5.17737 1.19052 5.153 1.17243 5.12789 1.15582C5.10278 1.1392 5.07657 1.12369 5.04998 1.10929C5.0234 1.09526 4.99608 1.08234 4.96838 1.07089C4.94069 1.05945 4.91189 1.04911 4.88346 1.04025C4.85466 1.03175 4.82512 1.024 4.79558 1.01809C4.76605 1.01218 4.73577 1.00775 4.70623 1.0048C4.69109 1.00332 4.67595 1.00185 4.66081 1.00111C4.63054 0.999631 4.59989 0.999631 4.56961 1.00111C4.55484 1.00185 4.53971 1.00332 4.52457 1.0048C4.49466 1.00775 4.46438 1.01218 4.43484 1.01809C4.40568 1.024 4.37614 1.03175 4.34734 1.04025C4.31854 1.04911 4.29011 1.05945 4.26204 1.07089C4.23435 1.08234 4.20703 1.09526 4.18044 1.10929C4.15386 1.12369 4.12801 1.1392 4.10291 1.15582C4.0778 1.17243 4.05306 1.19052 4.0298 1.20935C4.01835 1.21895 4.00654 1.22892 3.99546 1.23889C3.98438 1.24923 3.97331 1.25994 3.9626 1.27028C3.95189 1.28098 3.94118 1.29206 3.93121 1.30351C3.92124 1.31458 3.91128 1.32603 3.90168 1.33785C3.88248 1.36111 3.86438 1.38585 3.84777 1.41058C3.83115 1.43569 3.81564 1.46191 3.80161 1.48849C3.78758 1.51508 3.77429 1.5424 3.76284 1.57009C3.7514 1.59778 3.74143 1.62658 3.73257 1.65502C3.72371 1.68382 3.71632 1.71335 3.71041 1.74289C3.70451 1.77243 3.69971 1.80234 3.69675 1.83225C3.69528 1.84738 3.69417 1.86252 3.69343 1.87766C3.69269 1.8928 3.69232 1.90794 3.69232 1.92308C3.69232 1.93822 3.69269 1.95372 3.69343 1.96849C3.69417 1.98363 3.69528 1.99877 3.69675 2.01391Z" fill="#6FFFD4"/>
<path d="M7.10585 9.20875C6.74548 8.84838 6.16098 8.84838 5.80025 9.20875C5.43988 9.56912 5.43988 10.1536 5.80025 10.5144L7.36283 12.0769L5.80025 13.6395C5.43988 13.9999 5.43988 14.5844 5.80025 14.9451C5.98043 15.1253 6.21674 15.2154 6.45305 15.2154C6.68935 15.2154 6.92566 15.1253 7.10585 14.9451L9.32123 12.7297C9.6816 12.3694 9.6816 11.7849 9.32123 11.4241L7.10585 9.20875Z" fill="#6FFFD4"/>
<path d="M17.4051 8.98089C16.9189 8.82766 16.4005 9.09793 16.2476 9.58421L14.853 14.015C14.6998 14.5013 14.9701 15.0197 15.4563 15.1725C15.5486 15.2017 15.6421 15.2153 15.7336 15.2153C16.1261 15.2153 16.4898 14.9632 16.6139 14.5692L18.0085 10.1384C18.1617 9.65252 17.8914 9.13412 17.4051 8.98089Z" fill="#6FFFD4"/>
</svg>
