<svg width="24" height="24" viewBox="0 0 24 24" fill="none" xmlns="http://www.w3.org/2000/svg">
<path d="M17.493 6.14838L9.47495 6.1442C9.09763 6.14401 8.81479 6.42685 8.81498 6.80417C8.81518 7.18149 9.09832 7.46463 9.47564 7.46482L15.8901 7.46817L8.30047 15.0578C8.01763 15.3406 8.01782 15.7179 8.30096 16.0011C8.5841 16.2842 8.96142 16.2844 9.24426 16.0016L16.8339 8.41196L16.8384 17.1847C16.8386 17.562 17.1218 17.8451 17.4991 17.8453C17.6878 17.8454 17.8764 17.7512 17.9707 17.6569C18.0649 17.5626 18.1592 17.374 18.1591 17.1853L18.1537 6.80904C18.1535 6.43172 17.8703 6.14858 17.493 6.14838Z" fill="white"/>
<path d="M7.58885 7.27504C7.73028 7.13362 7.77737 6.99215 7.77727 6.80349C7.77717 6.61483 7.72993 6.47331 7.58836 6.33174C7.44679 6.19017 7.30528 6.14293 7.11661 6.14284C7.02228 6.14279 6.92795 6.14274 6.88081 6.18988C6.73934 6.23697 6.59792 6.37839 6.50369 6.567C6.50374 6.66133 6.4566 6.70847 6.45665 6.8028C6.45675 6.99146 6.50399 7.13298 6.64555 7.27455C6.78712 7.41612 6.92864 7.46336 7.1173 7.46346C7.30596 7.46356 7.44743 7.41646 7.58885 7.27504Z" fill="white"/>
<path d="M7.35789 16.5666C7.3107 16.5194 7.26356 16.5666 7.21637 16.5194C7.16918 16.4722 7.12204 16.5193 7.12204 16.5193C7.12204 16.5193 7.02771 16.5193 6.98057 16.5664C6.93343 16.6136 6.88624 16.5664 6.8391 16.6135C6.6033 16.6606 6.46192 16.8963 6.46207 17.1793L6.46212 17.2736C6.50931 17.3208 6.46217 17.368 6.50936 17.4152C6.55655 17.4623 6.55655 17.4623 6.5566 17.5567C6.60379 17.6039 6.60379 17.6039 6.65098 17.6511C6.79255 17.7926 6.93407 17.8399 7.12273 17.84C7.31139 17.8401 7.45286 17.793 7.59428 17.6515C7.64142 17.6044 7.7357 17.5101 7.73565 17.4158C7.7356 17.3215 7.78274 17.2743 7.78269 17.18C7.78259 16.9913 7.73536 16.8498 7.59379 16.7082C7.5466 16.6611 7.5466 16.6611 7.49941 16.6139C7.45222 16.5667 7.40508 16.6138 7.35789 16.5666Z" fill="white"/>
</svg>
