<svg width="24" height="24" viewBox="0 0 24 24" fill="none" xmlns="http://www.w3.org/2000/svg">
<path d="M19.8 11.5246L14.1333 5.85206C13.8667 5.58512 13.4667 5.58512 13.2 5.85206C12.9333 6.11901 12.9333 6.51943 13.2 6.78637L17.7333 11.3244H7C6.6 11.3244 6.33334 11.5914 6.33334 11.9918C6.33334 12.3922 6.6 12.6592 7 12.6592H17.7333L11.5333 18.8656C11.2667 19.1326 11.2667 19.533 11.5333 19.7999C11.6667 19.9334 11.8667 20.0001 12 20.0001C12.1333 20.0001 12.3333 19.9334 12.4667 19.7999L19.8 12.4589C20.0667 12.192 20.0667 11.7916 19.8 11.5246Z" fill="white"/>
<path d="M12 5.31804C12.2 5.31804 12.3333 5.2513 12.4667 5.11783C12.6 4.98436 12.6667 4.85089 12.6667 4.65068C12.6667 4.45047 12.6 4.317 12.4667 4.18352C12.4 4.11679 12.3333 4.05005 12.2667 4.05005C12.1333 3.98332 11.9333 3.98332 11.7333 4.05005C11.6667 4.11679 11.6 4.11679 11.5333 4.18352C11.4 4.317 11.3333 4.45047 11.3333 4.65068C11.3333 4.85089 11.4 4.98436 11.5333 5.11783C11.6667 5.2513 11.8 5.31804 12 5.31804Z" fill="white"/>
<path d="M5.26667 11.7249C5.26667 11.6582 5.2 11.6582 5.2 11.5914C5.2 11.5247 5.13333 11.5247 5.13333 11.5247C5.13333 11.5247 5.06667 11.458 5 11.458C4.93333 11.458 4.93333 11.3912 4.86667 11.3912C4.66667 11.2577 4.4 11.3245 4.2 11.5247L4.13333 11.5914C4.13333 11.6582 4.06667 11.6582 4.06667 11.7249C4.06667 11.7916 4.06667 11.7916 4 11.8584C4 11.9251 4 11.9251 4 11.9918C4 12.1921 4.06667 12.3255 4.2 12.459C4.33333 12.5925 4.46667 12.6592 4.66667 12.6592C4.73333 12.6592 4.86667 12.6592 4.93333 12.5925C5 12.5257 5.06667 12.5257 5.13333 12.459C5.26667 12.3255 5.33333 12.1921 5.33333 11.9918C5.33333 11.9251 5.33333 11.9251 5.33333 11.8584C5.33333 11.7916 5.26667 11.7916 5.26667 11.7249Z" fill="white"/>
</svg>
