<svg width="48" height="48" viewBox="0 0 48 48" fill="none" xmlns="http://www.w3.org/2000/svg">
<g clip-path="url(#clip0_205_94)">
<path d="M22.5736 0.599852L5.55603 17.5997C4.75521 18.3997 4.75521 19.5997 5.55603 20.3997C6.35686 21.1997 7.5581 21.1997 8.35893 20.3997L21.973 6.7998L21.973 38.9995C21.973 40.1995 22.7738 40.9995 23.9751 40.9995C25.1763 40.9995 25.9771 40.1995 25.9771 38.9995L25.9771 6.7998L44.5964 25.3996C45.3972 26.1996 46.5984 26.1996 47.3993 25.3996C47.7997 24.9996 47.9999 24.3997 47.9999 23.9997C47.9999 23.5997 47.7997 22.9997 47.3993 22.5997L25.3765 0.599852C24.5757 -0.200141 23.3744 -0.200141 22.5736 0.599852Z" fill="#181B1E"/>
<path d="M3.95409 23.9995C3.95409 23.3995 3.75388 22.9995 3.35346 22.5995C2.95305 22.1995 2.55264 21.9995 1.95202 21.9995C1.3514 21.9995 0.950983 22.1995 0.550569 22.5995C0.350363 22.7995 0.150155 22.9995 0.150155 23.1995C-0.0500517 23.5995 -0.0500517 24.1995 0.150155 24.7995C0.350362 24.9995 0.350363 25.1995 0.550569 25.3995C0.950983 25.7995 1.3514 25.9995 1.95202 25.9995C2.55264 25.9995 2.95305 25.7995 3.35346 25.3995C3.75388 24.9995 3.95409 24.5995 3.95409 23.9995Z" fill="#181B1E"/>
<path d="M23.1736 44.1995C22.9734 44.1995 22.9734 44.3995 22.7732 44.3995C22.573 44.3995 22.573 44.5995 22.573 44.5995C22.573 44.5995 22.3728 44.7995 22.3728 44.9995C22.3728 45.1995 22.1726 45.1995 22.1726 45.3995C21.7722 45.9995 21.9724 46.7995 22.573 47.3995L22.7732 47.5995C22.9734 47.5995 22.9734 47.7995 23.1736 47.7995C23.3738 47.7995 23.3738 47.7995 23.574 47.9995C23.7742 47.9995 23.7742 47.9995 23.9744 47.9995C24.5751 47.9995 24.9755 47.7995 25.3759 47.3995C25.7763 46.9995 25.9765 46.5995 25.9765 45.9995C25.9765 45.7995 25.9765 45.3995 25.7763 45.1995C25.5761 44.9995 25.5761 44.7995 25.3759 44.5995C24.9755 44.1995 24.5751 43.9995 23.9744 43.9995C23.7742 43.9995 23.7742 43.9995 23.574 43.9995C23.3738 43.9995 23.3738 44.1995 23.1736 44.1995Z" fill="#181B1E"/>
</g>
<defs>
<clipPath id="clip0_205_94">
<rect width="48" height="48" fill="white"/>
</clipPath>
</defs>
</svg>
